<svg xmlns="http://www.w3.org/2000/svg" xmlns:xlink="http://www.w3.org/1999/xlink" width="500" zoomAndPan="magnify" viewBox="0 157 370 110" height="500" preserveAspectRatio="xMidYMid meet" version="1.0"><defs><g/><clipPath id="3646c9cbdd"><path d="M 7.257812 204 L 29 204 L 29 265 L 7.257812 265 Z M 7.257812 204 " clip-rule="nonzero"/></clipPath><clipPath id="59d33bf241"><path d="M 13 257 L 29 257 L 29 275.640625 L 13 275.640625 Z M 13 257 " clip-rule="nonzero"/></clipPath><clipPath id="b6a62ca609"><path d="M 35 246 L 57 246 L 57 275.640625 L 35 275.640625 Z M 35 246 " clip-rule="nonzero"/></clipPath><clipPath id="b46c90bcb1"><path d="M 63 157.925781 L 84.507812 157.925781 L 84.507812 232 L 63 232 Z M 63 157.925781 " clip-rule="nonzero"/></clipPath><clipPath id="c10eb752ab"><path d="M 63 224 L 84.507812 224 L 84.507812 275.640625 L 63 275.640625 Z M 63 224 " clip-rule="nonzero"/></clipPath></defs><g fill="#222222" fill-opacity="1"><g transform="translate(114.38224, 225.00832)"><g><path d="M 14.734375 -16.03125 C 15.023438 -16.375 15.179688 -16.773438 15.203125 -17.234375 L 16.125 -17.234375 L 16.125 -12.515625 L 15.171875 -12.515625 C 14.953125 -13.765625 14.351562 -14.742188 13.375 -15.453125 C 12.40625 -16.171875 11.347656 -16.53125 10.203125 -16.53125 C 6.398438 -16.53125 4.515625 -13.875 4.546875 -8.5625 C 4.578125 -6.445312 5 -4.691406 5.8125 -3.296875 C 6.757812 -1.679688 8.132812 -0.875 9.9375 -0.875 C 11.3125 -0.875 12.472656 -1.113281 13.421875 -1.59375 C 14.378906 -2.082031 15.125 -2.742188 15.65625 -3.578125 L 16.25 -3.03125 C 15.96875 -2.34375 15.375 -1.691406 14.46875 -1.078125 C 13.226562 -0.210938 11.671875 0.21875 9.796875 0.21875 C 7.140625 0.21875 5.019531 -0.609375 3.4375 -2.265625 C 1.863281 -3.921875 1.078125 -6.023438 1.078125 -8.578125 C 1.078125 -11.140625 1.863281 -13.257812 3.4375 -14.9375 C 5.007812 -16.625 7.195312 -17.46875 10 -17.46875 C 11.519531 -17.46875 12.84375 -17.160156 13.96875 -16.546875 C 14.289062 -16.367188 14.546875 -16.195312 14.734375 -16.03125 Z M 14.734375 -16.03125 "/></g></g></g><g fill="#222222" fill-opacity="1"><g transform="translate(131.847709, 225.00832)"><g><path d="M 0.625 -0.875 L 2.4375 -0.875 L 2.4375 -18.09375 L 0.5 -18.09375 L 0.5 -18.96875 L 5.375 -18.96875 L 5.375 -10.125 C 6.46875 -11.1875 7.757812 -11.71875 9.25 -11.71875 C 10.25 -11.71875 11.140625 -11.460938 11.921875 -10.953125 C 12.910156 -10.296875 13.40625 -9.242188 13.40625 -7.796875 L 13.40625 -0.875 L 15.234375 -0.875 L 15.234375 0 L 8.65625 0 L 8.65625 -0.875 L 10.484375 -0.875 L 10.484375 -8.015625 C 10.484375 -8.898438 10.390625 -9.5 10.203125 -9.8125 C 10.015625 -10.125 9.804688 -10.34375 9.578125 -10.46875 C 9.347656 -10.59375 9 -10.65625 8.53125 -10.65625 C 8.0625 -10.65625 7.535156 -10.507812 6.953125 -10.21875 C 6.367188 -9.9375 5.84375 -9.507812 5.375 -8.9375 L 5.375 -0.875 L 7.203125 -0.875 L 7.203125 0 L 0.625 0 Z M 0.625 -0.875 "/></g></g></g><g fill="#222222" fill-opacity="1"><g transform="translate(147.38682, 225.00832)"><g><path d="M 8.625 -1.265625 C 7.75 -0.273438 6.578125 0.21875 5.109375 0.21875 C 4.003906 0.21875 3.046875 -0.0859375 2.234375 -0.703125 C 1.429688 -1.328125 1.03125 -2.140625 1.03125 -3.140625 C 1.03125 -4.140625 1.425781 -4.925781 2.21875 -5.5 C 3.007812 -6.070312 4.023438 -6.359375 5.265625 -6.359375 C 6.515625 -6.359375 7.554688 -6.050781 8.390625 -5.4375 L 8.390625 -8.109375 C 8.390625 -9.023438 8.273438 -9.644531 8.046875 -9.96875 C 7.816406 -10.289062 7.550781 -10.515625 7.25 -10.640625 C 6.945312 -10.765625 6.613281 -10.828125 6.25 -10.828125 C 5.664062 -10.828125 5.175781 -10.757812 4.78125 -10.625 C 4.382812 -10.5 4.117188 -10.367188 3.984375 -10.234375 C 4.328125 -10.128906 4.59375 -9.863281 4.78125 -9.4375 C 4.84375 -9.289062 4.875 -9.113281 4.875 -8.90625 C 4.875 -8.488281 4.722656 -8.140625 4.421875 -7.859375 C 4.117188 -7.585938 3.816406 -7.453125 3.515625 -7.453125 C 2.992188 -7.453125 2.582031 -7.59375 2.28125 -7.875 C 1.988281 -8.15625 1.84375 -8.488281 1.84375 -8.875 C 1.84375 -9.269531 1.914062 -9.59375 2.0625 -9.84375 C 2.207031 -10.09375 2.398438 -10.320312 2.640625 -10.53125 C 3.097656 -10.90625 3.671875 -11.191406 4.359375 -11.390625 C 5.054688 -11.597656 5.710938 -11.703125 6.328125 -11.703125 C 8.015625 -11.703125 9.265625 -11.359375 10.078125 -10.671875 C 10.890625 -9.992188 11.296875 -9.046875 11.296875 -7.828125 L 11.296875 -1.8125 C 11.296875 -1.1875 11.445312 -0.875 11.75 -0.875 C 12.0625 -0.875 12.359375 -1.0625 12.640625 -1.4375 L 13.234375 -0.953125 C 12.722656 -0.179688 11.890625 0.203125 10.734375 0.203125 C 10.328125 0.203125 9.914062 0.078125 9.5 -0.171875 C 9.082031 -0.429688 8.789062 -0.796875 8.625 -1.265625 Z M 8.421875 -4.421875 C 7.773438 -5.046875 7.070312 -5.359375 6.3125 -5.359375 C 5.5625 -5.359375 4.992188 -5.179688 4.609375 -4.828125 C 4.222656 -4.472656 4.03125 -3.898438 4.03125 -3.109375 C 4.03125 -1.941406 4.441406 -1.234375 5.265625 -0.984375 C 5.492188 -0.910156 5.726562 -0.875 5.96875 -0.875 C 6.65625 -0.875 7.3125 -1.140625 7.9375 -1.671875 C 8.113281 -1.828125 8.273438 -1.992188 8.421875 -2.171875 Z M 8.421875 -4.421875 "/></g></g></g><g fill="#222222" fill-opacity="1"><g transform="translate(161.033369, 225.00832)"><g><path d="M 5.609375 -9.96875 C 6.816406 -11.132812 8.125 -11.71875 9.53125 -11.71875 C 9.976562 -11.71875 10.375 -11.566406 10.71875 -11.265625 C 11.070312 -10.960938 11.25 -10.578125 11.25 -10.109375 C 11.25 -9.640625 11.097656 -9.257812 10.796875 -8.96875 C 10.503906 -8.675781 10.148438 -8.53125 9.734375 -8.53125 C 9.316406 -8.53125 8.960938 -8.671875 8.671875 -8.953125 C 8.378906 -9.242188 8.234375 -9.609375 8.234375 -10.046875 C 8.234375 -10.210938 8.265625 -10.382812 8.328125 -10.5625 C 7.234375 -10.238281 6.328125 -9.679688 5.609375 -8.890625 L 5.609375 -0.875 L 8.078125 -0.875 L 8.078125 0 L 0.984375 0 L 0.984375 -0.875 L 2.65625 -0.875 L 2.65625 -10.65625 L 0.96875 -10.65625 L 0.96875 -11.53125 L 5.609375 -11.53125 Z M 5.609375 -9.96875 "/></g></g></g><g fill="#222222" fill-opacity="1"><g transform="translate(172.753559, 225.00832)"><g><path d="M 8.625 -1.265625 C 7.75 -0.273438 6.578125 0.21875 5.109375 0.21875 C 4.003906 0.21875 3.046875 -0.0859375 2.234375 -0.703125 C 1.429688 -1.328125 1.03125 -2.140625 1.03125 -3.140625 C 1.03125 -4.140625 1.425781 -4.925781 2.21875 -5.5 C 3.007812 -6.070312 4.023438 -6.359375 5.265625 -6.359375 C 6.515625 -6.359375 7.554688 -6.050781 8.390625 -5.4375 L 8.390625 -8.109375 C 8.390625 -9.023438 8.273438 -9.644531 8.046875 -9.96875 C 7.816406 -10.289062 7.550781 -10.515625 7.25 -10.640625 C 6.945312 -10.765625 6.613281 -10.828125 6.25 -10.828125 C 5.664062 -10.828125 5.175781 -10.757812 4.78125 -10.625 C 4.382812 -10.5 4.117188 -10.367188 3.984375 -10.234375 C 4.328125 -10.128906 4.59375 -9.863281 4.78125 -9.4375 C 4.84375 -9.289062 4.875 -9.113281 4.875 -8.90625 C 4.875 -8.488281 4.722656 -8.140625 4.421875 -7.859375 C 4.117188 -7.585938 3.816406 -7.453125 3.515625 -7.453125 C 2.992188 -7.453125 2.582031 -7.59375 2.28125 -7.875 C 1.988281 -8.15625 1.84375 -8.488281 1.84375 -8.875 C 1.84375 -9.269531 1.914062 -9.59375 2.0625 -9.84375 C 2.207031 -10.09375 2.398438 -10.320312 2.640625 -10.53125 C 3.097656 -10.90625 3.671875 -11.191406 4.359375 -11.390625 C 5.054688 -11.597656 5.710938 -11.703125 6.328125 -11.703125 C 8.015625 -11.703125 9.265625 -11.359375 10.078125 -10.671875 C 10.890625 -9.992188 11.296875 -9.046875 11.296875 -7.828125 L 11.296875 -1.8125 C 11.296875 -1.1875 11.445312 -0.875 11.75 -0.875 C 12.0625 -0.875 12.359375 -1.0625 12.640625 -1.4375 L 13.234375 -0.953125 C 12.722656 -0.179688 11.890625 0.203125 10.734375 0.203125 C 10.328125 0.203125 9.914062 0.078125 9.5 -0.171875 C 9.082031 -0.429688 8.789062 -0.796875 8.625 -1.265625 Z M 8.421875 -4.421875 C 7.773438 -5.046875 7.070312 -5.359375 6.3125 -5.359375 C 5.5625 -5.359375 4.992188 -5.179688 4.609375 -4.828125 C 4.222656 -4.472656 4.03125 -3.898438 4.03125 -3.109375 C 4.03125 -1.941406 4.441406 -1.234375 5.265625 -0.984375 C 5.492188 -0.910156 5.726562 -0.875 5.96875 -0.875 C 6.65625 -0.875 7.3125 -1.140625 7.9375 -1.671875 C 8.113281 -1.828125 8.273438 -1.992188 8.421875 -2.171875 Z M 8.421875 -4.421875 "/></g></g></g><g fill="#222222" fill-opacity="1"><g transform="translate(186.400107, 225.00832)"><g><path d="M 8.71875 -10.65625 C 7.5 -10.65625 6.390625 -10.085938 5.390625 -8.953125 L 5.390625 -0.875 L 7.453125 -0.875 L 7.453125 0 L 0.640625 0 L 0.640625 -0.875 L 2.46875 -0.875 L 2.46875 -10.65625 L 0.625 -10.65625 L 0.625 -11.53125 L 5.390625 -11.53125 L 5.390625 -10.078125 C 6.523438 -11.171875 7.816406 -11.71875 9.265625 -11.71875 C 10.265625 -11.71875 11.148438 -11.460938 11.921875 -10.953125 C 12.921875 -10.296875 13.421875 -9.242188 13.421875 -7.796875 L 13.421875 -0.875 L 15.25 -0.875 L 15.25 0 L 8.4375 0 L 8.4375 -0.875 L 10.484375 -0.875 L 10.484375 -8.015625 C 10.484375 -8.898438 10.390625 -9.5 10.203125 -9.8125 C 10.023438 -10.125 9.820312 -10.34375 9.59375 -10.46875 C 9.363281 -10.59375 9.070312 -10.65625 8.71875 -10.65625 Z M 8.71875 -10.65625 "/></g></g></g><g fill="#222222" fill-opacity="1"><g transform="translate(201.961748, 225.00832)"><g><path d="M 8.625 -1.265625 C 7.75 -0.273438 6.578125 0.21875 5.109375 0.21875 C 4.003906 0.21875 3.046875 -0.0859375 2.234375 -0.703125 C 1.429688 -1.328125 1.03125 -2.140625 1.03125 -3.140625 C 1.03125 -4.140625 1.425781 -4.925781 2.21875 -5.5 C 3.007812 -6.070312 4.023438 -6.359375 5.265625 -6.359375 C 6.515625 -6.359375 7.554688 -6.050781 8.390625 -5.4375 L 8.390625 -8.109375 C 8.390625 -9.023438 8.273438 -9.644531 8.046875 -9.96875 C 7.816406 -10.289062 7.550781 -10.515625 7.25 -10.640625 C 6.945312 -10.765625 6.613281 -10.828125 6.25 -10.828125 C 5.664062 -10.828125 5.175781 -10.757812 4.78125 -10.625 C 4.382812 -10.5 4.117188 -10.367188 3.984375 -10.234375 C 4.328125 -10.128906 4.59375 -9.863281 4.78125 -9.4375 C 4.84375 -9.289062 4.875 -9.113281 4.875 -8.90625 C 4.875 -8.488281 4.722656 -8.140625 4.421875 -7.859375 C 4.117188 -7.585938 3.816406 -7.453125 3.515625 -7.453125 C 2.992188 -7.453125 2.582031 -7.59375 2.28125 -7.875 C 1.988281 -8.15625 1.84375 -8.488281 1.84375 -8.875 C 1.84375 -9.269531 1.914062 -9.59375 2.0625 -9.84375 C 2.207031 -10.09375 2.398438 -10.320312 2.640625 -10.53125 C 3.097656 -10.90625 3.671875 -11.191406 4.359375 -11.390625 C 5.054688 -11.597656 5.710938 -11.703125 6.328125 -11.703125 C 8.015625 -11.703125 9.265625 -11.359375 10.078125 -10.671875 C 10.890625 -9.992188 11.296875 -9.046875 11.296875 -7.828125 L 11.296875 -1.8125 C 11.296875 -1.1875 11.445312 -0.875 11.75 -0.875 C 12.0625 -0.875 12.359375 -1.0625 12.640625 -1.4375 L 13.234375 -0.953125 C 12.722656 -0.179688 11.890625 0.203125 10.734375 0.203125 C 10.328125 0.203125 9.914062 0.078125 9.5 -0.171875 C 9.082031 -0.429688 8.789062 -0.796875 8.625 -1.265625 Z M 8.421875 -4.421875 C 7.773438 -5.046875 7.070312 -5.359375 6.3125 -5.359375 C 5.5625 -5.359375 4.992188 -5.179688 4.609375 -4.828125 C 4.222656 -4.472656 4.03125 -3.898438 4.03125 -3.109375 C 4.03125 -1.941406 4.441406 -1.234375 5.265625 -0.984375 C 5.492188 -0.910156 5.726562 -0.875 5.96875 -0.875 C 6.65625 -0.875 7.3125 -1.140625 7.9375 -1.671875 C 8.113281 -1.828125 8.273438 -1.992188 8.421875 -2.171875 Z M 8.421875 -4.421875 "/></g></g></g><g fill="#222222" fill-opacity="1"><g transform="translate(215.608297, 225.00832)"><g/></g></g><g fill="#222222" fill-opacity="1"><g transform="translate(223.47577, 225.00832)"><g><path d="M 10.421875 -1.171875 C 9.535156 -0.242188 8.210938 0.21875 6.453125 0.21875 C 5.859375 0.21875 5.238281 0.101562 4.59375 -0.125 C 3.957031 -0.351562 3.394531 -0.707031 2.90625 -1.1875 C 2.425781 -1.675781 2.046875 -2.296875 1.765625 -3.046875 C 1.484375 -3.804688 1.34375 -4.679688 1.34375 -5.671875 C 1.34375 -7.535156 1.882812 -9.007812 2.96875 -10.09375 C 4.0625 -11.175781 5.394531 -11.71875 6.96875 -11.71875 C 7.957031 -11.71875 8.875 -11.515625 9.71875 -11.109375 C 9.988281 -10.984375 10.222656 -10.84375 10.421875 -10.6875 L 10.421875 -18.09375 L 8.09375 -18.09375 L 8.09375 -18.96875 L 13.359375 -18.96875 L 13.359375 -0.875 L 15.015625 -0.875 L 15.015625 0 L 10.421875 0 Z M 7.4375 -10.75 C 5.476562 -10.75 4.5 -9.097656 4.5 -5.796875 C 4.5 -3.335938 5.023438 -1.789062 6.078125 -1.15625 C 6.453125 -0.925781 6.921875 -0.8125 7.484375 -0.8125 C 8.054688 -0.820312 8.601562 -0.976562 9.125 -1.28125 C 9.644531 -1.59375 10.078125 -2.007812 10.421875 -2.53125 L 10.421875 -9.484375 C 9.847656 -10.085938 9.113281 -10.476562 8.21875 -10.65625 C 7.945312 -10.71875 7.6875 -10.75 7.4375 -10.75 Z M 7.4375 -10.75 "/></g></g></g><g fill="#222222" fill-opacity="1"><g transform="translate(239.037412, 225.00832)"><g><path d="M 12.078125 -1.96875 C 10.898438 -0.507812 9.222656 0.21875 7.046875 0.21875 C 6.328125 0.21875 5.578125 0.0664062 4.796875 -0.234375 C 4.015625 -0.535156 3.347656 -0.953125 2.796875 -1.484375 C 1.660156 -2.609375 1.09375 -4.046875 1.09375 -5.796875 C 1.09375 -7.546875 1.660156 -8.96875 2.796875 -10.0625 C 3.941406 -11.15625 5.394531 -11.703125 7.15625 -11.703125 C 9.738281 -11.703125 11.363281 -10.625 12.03125 -8.46875 C 12.25 -7.769531 12.359375 -6.988281 12.359375 -6.125 L 4.203125 -6.125 L 4.203125 -5.796875 C 4.203125 -3.472656 4.859375 -1.945312 6.171875 -1.21875 C 6.617188 -0.96875 7.148438 -0.84375 7.765625 -0.84375 C 9.128906 -0.84375 10.367188 -1.398438 11.484375 -2.515625 Z M 9.328125 -7.046875 C 9.316406 -8.253906 9.132812 -9.175781 8.78125 -9.8125 C 8.425781 -10.445312 7.847656 -10.765625 7.046875 -10.765625 C 5.410156 -10.765625 4.484375 -9.523438 4.265625 -7.046875 Z M 9.328125 -7.046875 "/></g></g></g><g fill="#222222" fill-opacity="1"><g transform="translate(252.672695, 225.00832)"><g/></g></g><g fill="#222222" fill-opacity="1"><g transform="translate(260.540168, 225.00832)"><g><path d="M 0.671875 -0.875 L 2.4375 -0.875 L 2.4375 -18.09375 L 0.59375 -18.09375 L 0.59375 -18.96875 L 5.421875 -18.96875 L 5.421875 -0.875 L 7.3125 -0.875 L 7.3125 0 L 0.671875 0 Z M 0.671875 -0.875 "/></g></g></g><g fill="#222222" fill-opacity="1"><g transform="translate(268.418907, 225.00832)"><g><path d="M 8.625 -1.265625 C 7.75 -0.273438 6.578125 0.21875 5.109375 0.21875 C 4.003906 0.21875 3.046875 -0.0859375 2.234375 -0.703125 C 1.429688 -1.328125 1.03125 -2.140625 1.03125 -3.140625 C 1.03125 -4.140625 1.425781 -4.925781 2.21875 -5.5 C 3.007812 -6.070312 4.023438 -6.359375 5.265625 -6.359375 C 6.515625 -6.359375 7.554688 -6.050781 8.390625 -5.4375 L 8.390625 -8.109375 C 8.390625 -9.023438 8.273438 -9.644531 8.046875 -9.96875 C 7.816406 -10.289062 7.550781 -10.515625 7.25 -10.640625 C 6.945312 -10.765625 6.613281 -10.828125 6.25 -10.828125 C 5.664062 -10.828125 5.175781 -10.757812 4.78125 -10.625 C 4.382812 -10.5 4.117188 -10.367188 3.984375 -10.234375 C 4.328125 -10.128906 4.59375 -9.863281 4.78125 -9.4375 C 4.84375 -9.289062 4.875 -9.113281 4.875 -8.90625 C 4.875 -8.488281 4.722656 -8.140625 4.421875 -7.859375 C 4.117188 -7.585938 3.816406 -7.453125 3.515625 -7.453125 C 2.992188 -7.453125 2.582031 -7.59375 2.28125 -7.875 C 1.988281 -8.15625 1.84375 -8.488281 1.84375 -8.875 C 1.84375 -9.269531 1.914062 -9.59375 2.0625 -9.84375 C 2.207031 -10.09375 2.398438 -10.320312 2.640625 -10.53125 C 3.097656 -10.90625 3.671875 -11.191406 4.359375 -11.390625 C 5.054688 -11.597656 5.710938 -11.703125 6.328125 -11.703125 C 8.015625 -11.703125 9.265625 -11.359375 10.078125 -10.671875 C 10.890625 -9.992188 11.296875 -9.046875 11.296875 -7.828125 L 11.296875 -1.8125 C 11.296875 -1.1875 11.445312 -0.875 11.75 -0.875 C 12.0625 -0.875 12.359375 -1.0625 12.640625 -1.4375 L 13.234375 -0.953125 C 12.722656 -0.179688 11.890625 0.203125 10.734375 0.203125 C 10.328125 0.203125 9.914062 0.078125 9.5 -0.171875 C 9.082031 -0.429688 8.789062 -0.796875 8.625 -1.265625 Z M 8.421875 -4.421875 C 7.773438 -5.046875 7.070312 -5.359375 6.3125 -5.359375 C 5.5625 -5.359375 4.992188 -5.179688 4.609375 -4.828125 C 4.222656 -4.472656 4.03125 -3.898438 4.03125 -3.109375 C 4.03125 -1.941406 4.441406 -1.234375 5.265625 -0.984375 C 5.492188 -0.910156 5.726562 -0.875 5.96875 -0.875 C 6.65625 -0.875 7.3125 -1.140625 7.9375 -1.671875 C 8.113281 -1.828125 8.273438 -1.992188 8.421875 -2.171875 Z M 8.421875 -4.421875 "/></g></g></g><g fill="#222222" fill-opacity="1"><g transform="translate(282.065456, 225.00832)"><g/></g></g><g fill="#222222" fill-opacity="1"><g transform="translate(289.932929, 225.00832)"><g><path d="M 14.734375 -16.03125 C 15.023438 -16.375 15.179688 -16.773438 15.203125 -17.234375 L 16.125 -17.234375 L 16.125 -12.515625 L 15.171875 -12.515625 C 14.953125 -13.765625 14.351562 -14.742188 13.375 -15.453125 C 12.40625 -16.171875 11.347656 -16.53125 10.203125 -16.53125 C 6.398438 -16.53125 4.515625 -13.875 4.546875 -8.5625 C 4.578125 -6.445312 5 -4.691406 5.8125 -3.296875 C 6.757812 -1.679688 8.132812 -0.875 9.9375 -0.875 C 11.3125 -0.875 12.472656 -1.113281 13.421875 -1.59375 C 14.378906 -2.082031 15.125 -2.742188 15.65625 -3.578125 L 16.25 -3.03125 C 15.96875 -2.34375 15.375 -1.691406 14.46875 -1.078125 C 13.226562 -0.210938 11.671875 0.21875 9.796875 0.21875 C 7.140625 0.21875 5.019531 -0.609375 3.4375 -2.265625 C 1.863281 -3.921875 1.078125 -6.023438 1.078125 -8.578125 C 1.078125 -11.140625 1.863281 -13.257812 3.4375 -14.9375 C 5.007812 -16.625 7.195312 -17.46875 10 -17.46875 C 11.519531 -17.46875 12.84375 -17.160156 13.96875 -16.546875 C 14.289062 -16.367188 14.546875 -16.195312 14.734375 -16.03125 Z M 14.734375 -16.03125 "/></g></g></g><g fill="#222222" fill-opacity="1"><g transform="translate(307.398398, 225.00832)"><g><path d="M 5.609375 -9.96875 C 6.816406 -11.132812 8.125 -11.71875 9.53125 -11.71875 C 9.976562 -11.71875 10.375 -11.566406 10.71875 -11.265625 C 11.070312 -10.960938 11.25 -10.578125 11.25 -10.109375 C 11.25 -9.640625 11.097656 -9.257812 10.796875 -8.96875 C 10.503906 -8.675781 10.148438 -8.53125 9.734375 -8.53125 C 9.316406 -8.53125 8.960938 -8.671875 8.671875 -8.953125 C 8.378906 -9.242188 8.234375 -9.609375 8.234375 -10.046875 C 8.234375 -10.210938 8.265625 -10.382812 8.328125 -10.5625 C 7.234375 -10.238281 6.328125 -9.679688 5.609375 -8.890625 L 5.609375 -0.875 L 8.078125 -0.875 L 8.078125 0 L 0.984375 0 L 0.984375 -0.875 L 2.65625 -0.875 L 2.65625 -10.65625 L 0.96875 -10.65625 L 0.96875 -11.53125 L 5.609375 -11.53125 Z M 5.609375 -9.96875 "/></g></g></g><g fill="#222222" fill-opacity="1"><g transform="translate(319.118589, 225.00832)"><g><path d="M 10 -1.109375 C 9 -0.222656 7.921875 0.21875 6.765625 0.21875 C 5.609375 0.21875 4.625 -0.0078125 3.8125 -0.46875 C 2.707031 -1.125 2.15625 -2.21875 2.15625 -3.75 L 2.15625 -10.65625 L 0.546875 -10.65625 L 0.546875 -11.53125 L 5.078125 -11.53125 L 5.078125 -3.234375 C 5.078125 -1.648438 5.8125 -0.859375 7.28125 -0.859375 C 8.289062 -0.859375 9.195312 -1.320312 10 -2.25 L 10 -10.65625 L 8.0625 -10.65625 L 8.0625 -11.53125 L 12.90625 -11.53125 L 12.90625 -0.875 L 14.375 -0.875 L 14.375 0 L 10 0 Z M 10 -1.109375 "/></g></g></g><g fill="#222222" fill-opacity="1"><g transform="translate(334.691495, 225.00832)"><g><path d="M 0.90625 -0.875 L 7.40625 -10.671875 L 4.875 -10.671875 C 3.925781 -10.671875 3.265625 -10.441406 2.890625 -9.984375 C 2.515625 -9.535156 2.242188 -8.820312 2.078125 -7.84375 L 1.265625 -7.84375 L 1.265625 -11.53125 L 10.578125 -11.53125 L 10.578125 -10.65625 L 4.15625 -0.859375 L 7.296875 -0.859375 C 8.367188 -0.859375 9.101562 -1.113281 9.5 -1.625 C 9.78125 -1.976562 9.972656 -2.628906 10.078125 -3.578125 L 10.859375 -3.578125 L 10.859375 0 L 0.90625 0 Z M 0.90625 -0.875 "/></g></g></g><g fill="#222222" fill-opacity="1"><g transform="translate(95.033384, 260.354907)"><g><path d="M 2.65625 -8.96875 L 2.65625 -5.09375 L 7.75 -5.09375 L 7.75 -4.1875 L 2.65625 -4.1875 L 2.65625 0 L 1.609375 0 L 1.609375 -9.859375 L 8.375 -9.859375 L 8.375 -8.96875 Z M 2.65625 -8.96875 "/></g></g></g><g fill="#222222" fill-opacity="1"><g transform="translate(109.126175, 260.354907)"><g><path d="M 1.609375 -9.859375 L 2.65625 -9.859375 L 2.65625 0 L 1.609375 0 Z M 1.609375 -9.859375 "/></g></g></g><g fill="#222222" fill-opacity="1"><g transform="translate(118.555474, 260.354907)"><g><path d="M 9.84375 -9.859375 L 9.84375 0 L 8.984375 0 L 2.65625 -8 L 2.65625 0 L 1.609375 0 L 1.609375 -9.859375 L 2.46875 -9.859375 L 8.828125 -1.859375 L 8.828125 -9.859375 Z M 9.84375 -9.859375 "/></g></g></g><g fill="#222222" fill-opacity="1"><g transform="translate(135.184311, 260.354907)"><g><path d="M 7.796875 -2.640625 L 2.296875 -2.640625 L 1.109375 0 L 0.03125 0 L 4.53125 -9.859375 L 5.5625 -9.859375 L 10.078125 0 L 8.984375 0 Z M 7.40625 -3.484375 L 5.046875 -8.78125 L 2.671875 -3.484375 Z M 7.40625 -3.484375 "/></g></g></g><g fill="#222222" fill-opacity="1"><g transform="translate(150.460599, 260.354907)"><g><path d="M 9.84375 -9.859375 L 9.84375 0 L 8.984375 0 L 2.65625 -8 L 2.65625 0 L 1.609375 0 L 1.609375 -9.859375 L 2.46875 -9.859375 L 8.828125 -1.859375 L 8.828125 -9.859375 Z M 9.84375 -9.859375 "/></g></g></g><g fill="#222222" fill-opacity="1"><g transform="translate(167.089432, 260.354907)"><g><path d="M 5.890625 0.078125 C 4.910156 0.078125 4.03125 -0.132812 3.25 -0.5625 C 2.46875 -1 1.851562 -1.597656 1.40625 -2.359375 C 0.957031 -3.128906 0.734375 -3.988281 0.734375 -4.9375 C 0.734375 -5.882812 0.957031 -6.738281 1.40625 -7.5 C 1.851562 -8.269531 2.46875 -8.867188 3.25 -9.296875 C 4.039062 -9.734375 4.925781 -9.953125 5.90625 -9.953125 C 6.632812 -9.953125 7.304688 -9.828125 7.921875 -9.578125 C 8.546875 -9.335938 9.078125 -8.984375 9.515625 -8.515625 L 8.84375 -7.84375 C 8.070312 -8.625 7.101562 -9.015625 5.9375 -9.015625 C 5.15625 -9.015625 4.441406 -8.835938 3.796875 -8.484375 C 3.160156 -8.128906 2.660156 -7.640625 2.296875 -7.015625 C 1.941406 -6.398438 1.765625 -5.707031 1.765625 -4.9375 C 1.765625 -4.164062 1.941406 -3.46875 2.296875 -2.84375 C 2.660156 -2.226562 3.160156 -1.738281 3.796875 -1.375 C 4.441406 -1.019531 5.15625 -0.84375 5.9375 -0.84375 C 7.113281 -0.84375 8.082031 -1.238281 8.84375 -2.03125 L 9.515625 -1.359375 C 9.078125 -0.890625 8.546875 -0.53125 7.921875 -0.28125 C 7.296875 -0.0390625 6.617188 0.078125 5.890625 0.078125 Z M 5.890625 0.078125 "/></g></g></g><g fill="#222222" fill-opacity="1"><g transform="translate(182.393894, 260.354907)"><g><path d="M 1.609375 -9.859375 L 2.65625 -9.859375 L 2.65625 0 L 1.609375 0 Z M 1.609375 -9.859375 "/></g></g></g><g fill="#222222" fill-opacity="1"><g transform="translate(191.823189, 260.354907)"><g><path d="M 7.796875 -2.640625 L 2.296875 -2.640625 L 1.109375 0 L 0.03125 0 L 4.53125 -9.859375 L 5.5625 -9.859375 L 10.078125 0 L 8.984375 0 Z M 7.40625 -3.484375 L 5.046875 -8.78125 L 2.671875 -3.484375 Z M 7.40625 -3.484375 "/></g></g></g><g fill="#222222" fill-opacity="1"><g transform="translate(207.099473, 260.354907)"><g><path d="M 1.609375 -9.859375 L 2.65625 -9.859375 L 2.65625 -0.90625 L 8.171875 -0.90625 L 8.171875 0 L 1.609375 0 Z M 1.609375 -9.859375 "/></g></g></g><g fill="#222222" fill-opacity="1"><g transform="translate(220.572349, 260.354907)"><g/></g></g><g fill="#222222" fill-opacity="1"><g transform="translate(229.438074, 260.354907)"><g><path d="M 4.328125 0.078125 C 3.597656 0.078125 2.894531 -0.0351562 2.21875 -0.265625 C 1.550781 -0.503906 1.03125 -0.816406 0.65625 -1.203125 L 1.078125 -2 C 1.429688 -1.644531 1.898438 -1.351562 2.484375 -1.125 C 3.078125 -0.90625 3.691406 -0.796875 4.328125 -0.796875 C 5.210938 -0.796875 5.875 -0.957031 6.3125 -1.28125 C 6.75 -1.613281 6.96875 -2.035156 6.96875 -2.546875 C 6.96875 -2.941406 6.847656 -3.253906 6.609375 -3.484375 C 6.367188 -3.722656 6.078125 -3.90625 5.734375 -4.03125 C 5.390625 -4.164062 4.90625 -4.304688 4.28125 -4.453125 C 3.539062 -4.640625 2.945312 -4.816406 2.5 -4.984375 C 2.0625 -5.160156 1.6875 -5.425781 1.375 -5.78125 C 1.0625 -6.144531 0.90625 -6.632812 0.90625 -7.25 C 0.90625 -7.738281 1.035156 -8.1875 1.296875 -8.59375 C 1.554688 -9.007812 1.957031 -9.335938 2.5 -9.578125 C 3.050781 -9.828125 3.726562 -9.953125 4.53125 -9.953125 C 5.101562 -9.953125 5.65625 -9.875 6.1875 -9.71875 C 6.726562 -9.5625 7.195312 -9.347656 7.59375 -9.078125 L 7.25 -8.25 C 6.832031 -8.519531 6.390625 -8.722656 5.921875 -8.859375 C 5.453125 -8.992188 4.988281 -9.0625 4.53125 -9.0625 C 3.664062 -9.0625 3.015625 -8.894531 2.578125 -8.5625 C 2.148438 -8.226562 1.9375 -7.796875 1.9375 -7.265625 C 1.9375 -6.878906 2.054688 -6.566406 2.296875 -6.328125 C 2.535156 -6.085938 2.832031 -5.898438 3.1875 -5.765625 C 3.550781 -5.640625 4.039062 -5.503906 4.65625 -5.359375 C 5.375 -5.179688 5.957031 -5.003906 6.40625 -4.828125 C 6.851562 -4.648438 7.226562 -4.382812 7.53125 -4.03125 C 7.84375 -3.6875 8 -3.210938 8 -2.609375 C 8 -2.109375 7.863281 -1.65625 7.59375 -1.25 C 7.332031 -0.84375 6.921875 -0.519531 6.359375 -0.28125 C 5.804688 -0.0390625 5.128906 0.078125 4.328125 0.078125 Z M 4.328125 0.078125 "/></g></g></g><g fill="#222222" fill-opacity="1"><g transform="translate(243.277261, 260.354907)"><g><path d="M 3.515625 -8.96875 L 0.0625 -8.96875 L 0.0625 -9.859375 L 8.03125 -9.859375 L 8.03125 -8.96875 L 4.5625 -8.96875 L 4.5625 0 L 3.515625 0 Z M 3.515625 -8.96875 "/></g></g></g><g fill="#222222" fill-opacity="1"><g transform="translate(256.538796, 260.354907)"><g><path d="M 8.34375 0 L 6.09375 -3.171875 C 5.832031 -3.140625 5.566406 -3.125 5.296875 -3.125 L 2.65625 -3.125 L 2.65625 0 L 1.609375 0 L 1.609375 -9.859375 L 5.296875 -9.859375 C 6.554688 -9.859375 7.539062 -9.554688 8.25 -8.953125 C 8.96875 -8.359375 9.328125 -7.535156 9.328125 -6.484375 C 9.328125 -5.710938 9.128906 -5.0625 8.734375 -4.53125 C 8.347656 -4 7.796875 -3.613281 7.078125 -3.375 L 9.484375 0 Z M 5.265625 -4.015625 C 6.242188 -4.015625 6.988281 -4.226562 7.5 -4.65625 C 8.019531 -5.09375 8.28125 -5.703125 8.28125 -6.484375 C 8.28125 -7.285156 8.019531 -7.898438 7.5 -8.328125 C 6.988281 -8.753906 6.242188 -8.96875 5.265625 -8.96875 L 2.65625 -8.96875 L 2.65625 -4.015625 Z M 5.265625 -4.015625 "/></g></g></g><g fill="#222222" fill-opacity="1"><g transform="translate(271.899613, 260.354907)"><g><path d="M 7.796875 -2.640625 L 2.296875 -2.640625 L 1.109375 0 L 0.03125 0 L 4.53125 -9.859375 L 5.5625 -9.859375 L 10.078125 0 L 8.984375 0 Z M 7.40625 -3.484375 L 5.046875 -8.78125 L 2.671875 -3.484375 Z M 7.40625 -3.484375 "/></g></g></g><g fill="#222222" fill-opacity="1"><g transform="translate(287.175898, 260.354907)"><g><path d="M 3.515625 -8.96875 L 0.0625 -8.96875 L 0.0625 -9.859375 L 8.03125 -9.859375 L 8.03125 -8.96875 L 4.5625 -8.96875 L 4.5625 0 L 3.515625 0 Z M 3.515625 -8.96875 "/></g></g></g><g fill="#222222" fill-opacity="1"><g transform="translate(300.437433, 260.354907)"><g><path d="M 8.578125 -0.90625 L 8.578125 0 L 1.609375 0 L 1.609375 -9.859375 L 8.375 -9.859375 L 8.375 -8.96875 L 2.65625 -8.96875 L 2.65625 -5.453125 L 7.75 -5.453125 L 7.75 -4.5625 L 2.65625 -4.5625 L 2.65625 -0.90625 Z M 8.578125 -0.90625 "/></g></g></g><g fill="#222222" fill-opacity="1"><g transform="translate(315.037435, 260.354907)"><g><path d="M 8.5625 -4.9375 L 9.5625 -4.9375 L 9.5625 -1.171875 C 9.09375 -0.765625 8.539062 -0.453125 7.90625 -0.234375 C 7.28125 -0.0234375 6.625 0.078125 5.9375 0.078125 C 4.945312 0.078125 4.054688 -0.132812 3.265625 -0.5625 C 2.472656 -1 1.851562 -1.597656 1.40625 -2.359375 C 0.957031 -3.128906 0.734375 -3.988281 0.734375 -4.9375 C 0.734375 -5.882812 0.957031 -6.738281 1.40625 -7.5 C 1.851562 -8.269531 2.472656 -8.867188 3.265625 -9.296875 C 4.054688 -9.734375 4.953125 -9.953125 5.953125 -9.953125 C 6.703125 -9.953125 7.390625 -9.832031 8.015625 -9.59375 C 8.648438 -9.351562 9.179688 -9 9.609375 -8.53125 L 8.96875 -7.859375 C 8.1875 -8.628906 7.191406 -9.015625 5.984375 -9.015625 C 5.191406 -9.015625 4.472656 -8.835938 3.828125 -8.484375 C 3.179688 -8.140625 2.675781 -7.65625 2.3125 -7.03125 C 1.945312 -6.40625 1.765625 -5.707031 1.765625 -4.9375 C 1.765625 -4.164062 1.945312 -3.46875 2.3125 -2.84375 C 2.675781 -2.226562 3.175781 -1.738281 3.8125 -1.375 C 4.457031 -1.019531 5.175781 -0.84375 5.96875 -0.84375 C 6.988281 -0.84375 7.851562 -1.097656 8.5625 -1.609375 Z M 8.5625 -4.9375 "/></g></g></g><g fill="#222222" fill-opacity="1"><g transform="translate(331.102712, 260.354907)"><g><path d="M 1.609375 -9.859375 L 2.65625 -9.859375 L 2.65625 0 L 1.609375 0 Z M 1.609375 -9.859375 "/></g></g></g><g fill="#222222" fill-opacity="1"><g transform="translate(340.532008, 260.354907)"><g><path d="M 4.328125 0.078125 C 3.597656 0.078125 2.894531 -0.0351562 2.21875 -0.265625 C 1.550781 -0.503906 1.03125 -0.816406 0.65625 -1.203125 L 1.078125 -2 C 1.429688 -1.644531 1.898438 -1.351562 2.484375 -1.125 C 3.078125 -0.90625 3.691406 -0.796875 4.328125 -0.796875 C 5.210938 -0.796875 5.875 -0.957031 6.3125 -1.28125 C 6.75 -1.613281 6.96875 -2.035156 6.96875 -2.546875 C 6.96875 -2.941406 6.847656 -3.253906 6.609375 -3.484375 C 6.367188 -3.722656 6.078125 -3.90625 5.734375 -4.03125 C 5.390625 -4.164062 4.90625 -4.304688 4.28125 -4.453125 C 3.539062 -4.640625 2.945312 -4.816406 2.5 -4.984375 C 2.0625 -5.160156 1.6875 -5.425781 1.375 -5.78125 C 1.0625 -6.144531 0.90625 -6.632812 0.90625 -7.25 C 0.90625 -7.738281 1.035156 -8.1875 1.296875 -8.59375 C 1.554688 -9.007812 1.957031 -9.335938 2.5 -9.578125 C 3.050781 -9.828125 3.726562 -9.953125 4.53125 -9.953125 C 5.101562 -9.953125 5.65625 -9.875 6.1875 -9.71875 C 6.726562 -9.5625 7.195312 -9.347656 7.59375 -9.078125 L 7.25 -8.25 C 6.832031 -8.519531 6.390625 -8.722656 5.921875 -8.859375 C 5.453125 -8.992188 4.988281 -9.0625 4.53125 -9.0625 C 3.664062 -9.0625 3.015625 -8.894531 2.578125 -8.5625 C 2.148438 -8.226562 1.9375 -7.796875 1.9375 -7.265625 C 1.9375 -6.878906 2.054688 -6.566406 2.296875 -6.328125 C 2.535156 -6.085938 2.832031 -5.898438 3.1875 -5.765625 C 3.550781 -5.640625 4.039062 -5.503906 4.65625 -5.359375 C 5.375 -5.179688 5.957031 -5.003906 6.40625 -4.828125 C 6.851562 -4.648438 7.226562 -4.382812 7.53125 -4.03125 C 7.84375 -3.6875 8 -3.210938 8 -2.609375 C 8 -2.109375 7.863281 -1.65625 7.59375 -1.25 C 7.332031 -0.84375 6.921875 -0.519531 6.359375 -0.28125 C 5.804688 -0.0390625 5.128906 0.078125 4.328125 0.078125 Z M 4.328125 0.078125 "/></g></g></g><g fill="#222222" fill-opacity="1"><g transform="translate(354.371209, 260.354907)"><g><path d="M 3.515625 -8.96875 L 0.0625 -8.96875 L 0.0625 -9.859375 L 8.03125 -9.859375 L 8.03125 -8.96875 L 4.5625 -8.96875 L 4.5625 0 L 3.515625 0 Z M 3.515625 -8.96875 "/></g></g></g><g clip-path="url(#3646c9cbdd)"><path fill="#2c96ce" d="M 28.746094 218.703125 L 28.746094 238.742188 L 7.253906 264.933594 L 7.253906 204.6875 L 28.746094 218.703125 " fill-opacity="1" fill-rule="nonzero"/></g><g clip-path="url(#59d33bf241)"><path fill="#5a5a54" d="M 13.519531 275.699219 L 28.746094 257.140625 L 28.746094 275.699219 Z M 13.519531 275.699219 " fill-opacity="1" fill-rule="nonzero"/></g><path fill="#2c96ce" d="M 56.773438 195.34375 L 56.773438 239.972656 L 54.949219 242.199219 L 35.285156 231.480469 L 35.285156 181.332031 L 56.773438 195.34375 " fill-opacity="1" fill-rule="nonzero"/><g clip-path="url(#b6a62ca609)"><path fill="#5a5a54" d="M 37.777344 246.132812 L 56.773438 256.484375 L 56.773438 275.699219 L 35.285156 275.699219 L 35.285156 249.171875 L 37.777344 246.132812 " fill-opacity="1" fill-rule="nonzero"/></g><g clip-path="url(#b46c90bcb1)"><path fill="#2c96ce" d="M 84.804688 171.988281 L 84.804688 205.808594 L 63.316406 232 L 63.316406 157.972656 L 84.804688 171.988281 " fill-opacity="1" fill-rule="nonzero"/></g><g clip-path="url(#c10eb752ab)"><path fill="#5a5a54" d="M 63.316406 250.398438 L 84.804688 224.207031 L 84.804688 275.699219 L 63.316406 275.699219 L 63.316406 250.398438 " fill-opacity="1" fill-rule="nonzero"/></g><path stroke-linecap="butt" transform="matrix(0.75, 0, 0, 0.75, 95.033384, 271.950685)" fill="none" stroke-linejoin="miter" d="M 0.00236319 2.498045 L 360.856554 2.498045 " stroke="#2c96ce" stroke-width="5" stroke-opacity="1" stroke-miterlimit="4"/><path stroke-linecap="butt" transform="matrix(0.75, 0, 0, 0.75, 95.033384, 235.396098)" fill="none" stroke-linejoin="miter" d="M 0.00236319 2.497911 L 360.856554 2.497911 " stroke="#2c96ce" stroke-width="5" stroke-opacity="1" stroke-miterlimit="4"/></svg>